<svg width="32" height="32" viewBox="0 0 32 32" fill="none" xmlns="http://www.w3.org/2000/svg">
<path d="M27 16.7599V15.2299L28.92 13.5499C29.2739 13.238 29.5062 12.8109 29.5757 12.3443C29.6453 11.8777 29.5476 11.4015 29.3 10.9999L26.94 6.99992C26.7647 6.69618 26.5125 6.4439 26.2089 6.26838C25.9052 6.09286 25.5607 6.00028 25.21 5.99992C24.9927 5.99825 24.7765 6.03203 24.57 6.09992L22.14 6.91992C21.7205 6.64113 21.2828 6.39057 20.83 6.16992L20.32 3.64992C20.2286 3.18952 19.9781 2.77596 19.6125 2.48162C19.2468 2.18728 18.7893 2.03092 18.32 2.03992H13.64C13.1707 2.03092 12.7132 2.18728 12.3476 2.48162C11.9819 2.77596 11.7315 3.18952 11.64 3.64992L11.13 6.16992C10.6739 6.39052 10.233 6.64107 9.81001 6.91992L7.43001 6.05992C7.22131 6.00554 7.00518 5.98528 6.79001 5.99992C6.43928 6.00028 6.09482 6.09286 5.79117 6.26838C5.48752 6.4439 5.23537 6.69618 5.06001 6.99992L2.70001 10.9999C2.4666 11.4009 2.37986 11.8706 2.45466 12.3285C2.52946 12.7864 2.76113 13.204 3.11001 13.5099L5.00001 15.2399V16.7699L3.11001 18.4499C2.75128 18.7579 2.51326 19.183 2.43821 19.6499C2.36315 20.1167 2.4559 20.595 2.70001 20.9999L5.06001 24.9999C5.23537 25.3037 5.48752 25.5559 5.79117 25.7315C6.09482 25.907 6.43928 25.9996 6.79001 25.9999C7.00736 26.0016 7.22353 25.9678 7.43001 25.8999L9.86001 25.0799C10.2796 25.3587 10.7172 25.6093 11.17 25.8299L11.68 28.3499C11.7715 28.8103 12.0219 29.2239 12.3876 29.5182C12.7532 29.8125 13.2107 29.9689 13.68 29.9599H18.4C18.8693 29.9689 19.3268 29.8125 19.6925 29.5182C20.0581 29.2239 20.3086 28.8103 20.4 28.3499L20.91 25.8299C21.3661 25.6093 21.807 25.3588 22.23 25.0799L24.65 25.8999C24.8565 25.9678 25.0727 26.0016 25.29 25.9999C25.6407 25.9996 25.9852 25.907 26.2889 25.7315C26.5925 25.5559 26.8447 25.3037 27.02 24.9999L29.3 20.9999C29.5334 20.5989 29.6202 20.1293 29.5454 19.6714C29.4706 19.2134 29.2389 18.7958 28.89 18.4899L27 16.7599ZM25.21 23.9999L21.78 22.8399C20.9771 23.52 20.0594 24.0517 19.07 24.4099L18.36 27.9999H13.64L12.93 24.4499C11.9484 24.0815 11.0357 23.5508 10.23 22.8799L6.79001 23.9999L4.43001 19.9999L7.15001 17.5999C6.96511 16.5648 6.96511 15.5051 7.15001 14.4699L4.43001 11.9999L6.79001 7.99992L10.22 9.15992C11.0229 8.47981 11.9406 7.94817 12.93 7.58992L13.64 3.99992H18.36L19.07 7.54992C20.0516 7.91834 20.9643 8.44906 21.77 9.11992L25.21 7.99992L27.57 11.9999L24.85 14.3999C25.0349 15.4351 25.0349 16.4948 24.85 17.5299L27.57 19.9999L25.21 23.9999Z" fill="#6A6CE0"/>
<path d="M16 22C14.8133 22 13.6533 21.6481 12.6666 20.9888C11.6799 20.3295 10.9109 19.3925 10.4567 18.2961C10.0026 17.1997 9.88378 15.9933 10.1153 14.8295C10.3468 13.6656 10.9182 12.5965 11.7574 11.7574C12.5965 10.9182 13.6656 10.3468 14.8295 10.1153C15.9933 9.88378 17.1997 10.0026 18.2961 10.4567C19.3925 10.9109 20.3295 11.6799 20.9888 12.6666C21.6481 13.6533 22 14.8133 22 16C22.008 16.7902 21.8583 17.574 21.5596 18.3056C21.2609 19.0371 20.8193 19.7018 20.2605 20.2605C19.7018 20.8193 19.0371 21.2609 18.3056 21.5596C17.574 21.8583 16.7902 22.008 16 22ZM16 12C15.4713 11.9877 14.9457 12.0827 14.4548 12.2794C13.9639 12.4761 13.5181 12.7702 13.1442 13.1442C12.7702 13.5181 12.4761 13.9639 12.2794 14.4548C12.0827 14.9457 11.9877 15.4713 12 16C11.9877 16.5287 12.0827 17.0543 12.2794 17.5452C12.4761 18.0361 12.7702 18.4819 13.1442 18.8558C13.5181 19.2298 13.9639 19.524 14.4548 19.7206C14.9457 19.9173 15.4713 20.0123 16 20C16.5287 20.0123 17.0543 19.9173 17.5452 19.7206C18.0361 19.524 18.4819 19.2298 18.8558 18.8558C19.2298 18.4819 19.524 18.0361 19.7206 17.5452C19.9173 17.0543 20.0123 16.5287 20 16C20.0123 15.4713 19.9173 14.9457 19.7206 14.4548C19.524 13.9639 19.2298 13.5181 18.8558 13.1442C18.4819 12.7702 18.0361 12.4761 17.5452 12.2794C17.0543 12.0827 16.5287 11.9877 16 12Z" fill="#6A6CE0"/>
</svg>
