<svg width="20" height="20" viewBox="0 0 20 20" fill="none" xmlns="http://www.w3.org/2000/svg">
<g clip-path="url(#clip0_328_363)">
<path d="M10 18.3334C11.0946 18.3348 12.1786 18.1199 13.1899 17.7011C14.2011 17.2822 15.1196 16.6676 15.8925 15.8926C16.6675 15.1196 17.2821 14.2012 17.701 13.1899C18.1199 12.1787 18.3348 11.0946 18.3334 10.0001C18.3348 8.90554 18.1198 7.8215 17.701 6.81027C17.2821 5.79904 16.6675 4.88055 15.8925 4.10759C15.1196 3.3326 14.2011 2.718 13.1899 2.29912C12.1786 1.88024 11.0946 1.66534 10 1.66676C8.90548 1.66536 7.82144 1.88028 6.81021 2.29916C5.79898 2.71804 4.88049 3.33262 4.10753 4.10759C3.33256 4.88055 2.71797 5.79904 2.29909 6.81027C1.88022 7.8215 1.6653 8.90554 1.66669 10.0001C1.66528 11.0946 1.88018 12.1787 2.29906 13.1899C2.71794 14.2012 3.33254 15.1196 4.10753 15.8926C4.88049 16.6676 5.79898 17.2821 6.81021 17.701C7.82144 18.1199 8.90548 18.3348 10 18.3334Z" stroke="#3DCB65" stroke-opacity="0.6" stroke-width="2" stroke-linejoin="round"/>
<path d="M6.66669 10L9.16669 12.5L14.1667 7.5" stroke="#3DCB65" stroke-opacity="0.6" stroke-width="2" stroke-linecap="round" stroke-linejoin="round"/>
</g>
<defs>
<clipPath id="clip0_328_363">
<rect width="20" height="20" fill="white"/>
</clipPath>
</defs>
</svg>
