<svg width="20" height="20" viewBox="0 0 20 20" fill="none" xmlns="http://www.w3.org/2000/svg">
<path fill-rule="evenodd" clip-rule="evenodd" d="M4.16665 16.6667H15.8333C16.0543 16.6667 16.2663 16.7545 16.4226 16.9108C16.5788 17.0671 16.6666 17.2791 16.6666 17.5001C16.6666 17.7211 16.5788 17.9331 16.4226 18.0893C16.2663 18.2456 16.0543 18.3334 15.8333 18.3334H4.16665C3.94563 18.3334 3.73367 18.2456 3.57739 18.0893C3.42111 17.9331 3.33331 17.7211 3.33331 17.5001C3.33331 17.2791 3.42111 17.0671 3.57739 16.9108C3.73367 16.7545 3.94563 16.6667 4.16665 16.6667ZM3.33331 12.5001L11.6666 4.16675L14.1666 6.66675L5.83331 15.0001H3.33331V12.5001ZM12.5 3.33341L14.1666 1.66675L16.6666 4.16675L14.9991 5.83425L12.5 3.33341Z" fill="#372F2F"/>
</svg>
