<svg width="28" height="28" viewBox="0 0 28 28" fill="none" xmlns="http://www.w3.org/2000/svg">
<path fill-rule="evenodd" clip-rule="evenodd" d="M5.92552 5.91386C10.353 1.49219 17.5513 1.53886 22.0057 5.99436C26.4624 10.451 26.509 17.6529 22.0804 22.0804C17.6529 26.5079 10.451 26.4624 5.99435 22.0057C4.74077 20.7573 3.7936 19.2353 3.22722 17.5592C2.66084 15.8831 2.49065 14.0986 2.73002 12.3457C2.76142 12.1156 2.88293 11.9075 3.06781 11.767C3.25269 11.6266 3.4858 11.5653 3.71585 11.5967C3.9459 11.6281 4.15406 11.7496 4.29452 11.9345C4.43499 12.1194 4.49626 12.3525 4.46485 12.5825C4.26166 14.0681 4.40571 15.5805 4.88567 17.0009C5.36564 18.4214 6.16845 19.7112 7.23102 20.769C11.0169 24.5537 17.1103 24.5759 20.8437 20.8437C24.5758 17.1104 24.5537 11.0169 20.769 7.23102C16.9855 3.44869 10.8955 3.42419 7.16218 7.15169L8.03485 7.15519C8.14976 7.15573 8.26343 7.17889 8.36939 7.22336C8.47534 7.26783 8.5715 7.33273 8.65237 7.41436C8.73324 7.49599 8.79725 7.59275 8.84072 7.69912C8.8842 7.80548 8.9063 7.91937 8.90577 8.03427C8.90523 8.14918 8.88207 8.26286 8.8376 8.36881C8.79313 8.47477 8.72823 8.57093 8.6466 8.6518C8.56497 8.73267 8.46821 8.79667 8.36184 8.84015C8.25548 8.88363 8.14159 8.90573 8.02668 8.90519L5.05635 8.89119C4.8257 8.88996 4.60486 8.79771 4.44188 8.63451C4.27889 8.4713 4.18694 8.25034 4.18602 8.01969L4.17085 5.05169C4.17024 4.93678 4.19226 4.82288 4.23567 4.71649C4.27908 4.61009 4.34301 4.51329 4.42383 4.43161C4.50465 4.34992 4.60076 4.28496 4.70669 4.24042C4.81262 4.19588 4.92628 4.17264 5.04118 4.17202C5.15609 4.17141 5.26999 4.19344 5.37639 4.23684C5.48278 4.28025 5.57958 4.34419 5.66127 4.42501C5.74295 4.50582 5.80792 4.60194 5.85246 4.70787C5.897 4.81379 5.92024 4.92745 5.92085 5.04236L5.92552 5.91386ZM13.9988 8.45719C14.2309 8.45719 14.4535 8.54938 14.6176 8.71347C14.7817 8.87757 14.8738 9.10013 14.8738 9.33219V13.6372L17.535 16.2972C17.6186 16.3779 17.6853 16.4744 17.7312 16.5811C17.7771 16.6879 17.8013 16.8027 17.8024 16.9188C17.8035 17.035 17.7814 17.1502 17.7374 17.2578C17.6935 17.3654 17.6286 17.4631 17.5464 17.5453C17.4643 17.6275 17.3667 17.6925 17.2592 17.7365C17.1516 17.7806 17.0364 17.8028 16.9202 17.8018C16.8041 17.8009 16.6892 17.7768 16.5825 17.731C16.4757 17.6852 16.3791 17.6186 16.2984 17.535L13.125 14.3617V9.33336C13.125 9.10129 13.2172 8.87873 13.3813 8.71464C13.5454 8.55055 13.768 8.45836 14 8.45836" fill="#FFFEFC"/>
</svg>
