<svg width="28" height="28" viewBox="0 0 28 28" fill="none" xmlns="http://www.w3.org/2000/svg">
<path d="M10.5 19.2499C9.68333 19.2499 8.99306 18.968 8.42917 18.4041C7.86528 17.8402 7.58333 17.1499 7.58333 16.3333C7.58333 15.5166 7.86528 14.8263 8.42917 14.2624C8.99306 13.6985 9.68333 13.4166 10.5 13.4166C11.3167 13.4166 12.0069 13.6985 12.5708 14.2624C13.1347 14.8263 13.4167 15.5166 13.4167 16.3333C13.4167 17.1499 13.1347 17.8402 12.5708 18.4041C12.0069 18.968 11.3167 19.2499 10.5 19.2499ZM5.83333 25.6666C5.19167 25.6666 4.64256 25.4383 4.186 24.9818C3.72944 24.5252 3.50078 23.9757 3.5 23.3333V6.99992C3.5 6.35825 3.72867 5.80914 4.186 5.35259C4.64333 4.89603 5.19244 4.66736 5.83333 4.66659H7V2.33325H9.33333V4.66659H18.6667V2.33325H21V4.66659H22.1667C22.8083 4.66659 23.3578 4.89525 23.8152 5.35259C24.2725 5.80992 24.5008 6.35903 24.5 6.99992V23.3333C24.5 23.9749 24.2717 24.5244 23.8152 24.9818C23.3586 25.4391 22.8091 25.6674 22.1667 25.6666H5.83333ZM5.83333 23.3333H22.1667V11.6666H5.83333V23.3333ZM5.83333 9.33325H22.1667V6.99992H5.83333V9.33325Z" fill="#FFFEFC"/>
</svg>
