<svg width="14" height="14" viewBox="0 0 14 14" fill="none" xmlns="http://www.w3.org/2000/svg">
<path d="M12.8334 12.8334L11.6667 11.6668M6.70836 12.2501C7.4361 12.2501 8.15671 12.1067 8.82906 11.8282C9.50141 11.5498 10.1123 11.1416 10.6269 10.627C11.1415 10.1124 11.5497 9.50147 11.8282 8.82912C12.1067 8.15677 12.25 7.43616 12.25 6.70842C12.25 5.98067 12.1067 5.26006 11.8282 4.58771C11.5497 3.91537 11.1415 3.30446 10.6269 2.78987C10.1123 2.27527 9.50141 1.86708 8.82906 1.58858C8.15671 1.31009 7.4361 1.16675 6.70836 1.16675C5.23861 1.16675 3.82907 1.7506 2.7898 2.78987C1.75054 3.82913 1.16669 5.23867 1.16669 6.70842C1.16669 8.17816 1.75054 9.5877 2.7898 10.627C3.82907 11.6662 5.23861 12.2501 6.70836 12.2501V12.2501Z" stroke="#FFFEFC" stroke-width="1.5" stroke-linecap="round" stroke-linejoin="round"/>
</svg>
